# xmcd
#
# Track frame offsets: 
#        150
#        18760
#        39297
#        63745
#        79087
#        95480
#        112232
#        134737
#        155305
#        167395
#
# Disc length: 2524 seconds
#
# Revision: 8
# Processed by: cddbd v1.5.2PL0 Copyright (c) Steve Scherf et al.
# Submitted via: ExactAudioCopy v0.99pb5
#
DISCID=7b09da0a
DTITLE=Lonnie Mack - Strike Like Lightning
DYEAR=1985
DGENRE=Blues
TTITLE0=Hound Dog Man
TTITLE1=Satisfy Susie
TTITLE2=Stop
TTITLE3=Long Way From Memphis
TTITLE4=Double Whammy
TTITLE5=Strike Like Lightning
TTITLE6=Falling Back In Love With You
TTITLE7=If You Have To Know
TTITLE8=You Ain't Got Me
TTITLE9=Oreo Cookie Blues
EXTD=YEAR: 1985
EXTT0=
EXTT1=
EXTT2=
EXTT3=
EXTT4=
EXTT5=
EXTT6=
EXTT7=
EXTT8=
EXTT9=
PLAYORDER=
